<svg width="200" height="201" viewBox="0 0 200 201" fill="none" xmlns="http://www.w3.org/2000/svg">
<path d="M57.2891 40.7576C57.217 40.6044 57.114 40.4677 56.9866 40.3562C56.8592 40.2447 56.7102 40.1607 56.5488 40.1096C56.3874 40.0584 56.2171 40.0411 56.0488 40.0589C55.8804 40.0766 55.7175 40.129 55.5703 40.2126C48.1484 44.4587 42.9453 49.9783 39.2578 56.3494C39.1971 56.4555 39.1589 56.573 39.1458 56.6946C39.1327 56.8162 39.1448 56.9392 39.1815 57.0559C39.2182 57.1725 39.2786 57.2803 39.359 57.3725C39.4393 57.4647 39.5379 57.5393 39.6484 57.5915L62.1094 68.365C62.4234 68.5159 62.7768 68.5649 63.12 68.505C63.4632 68.4451 63.7791 68.2794 64.0235 68.031L67.3301 64.6833C67.5786 64.4309 67.7438 64.1083 67.8035 63.7592C67.8632 63.41 67.8145 63.0509 67.6641 62.7302L57.2891 40.7576Z" fill="url(#paint0_linear)"/>
<path d="M59.5898 75.1072C51.998 70.9041 44.5508 67.2498 37.2773 64.2732C36.9695 64.1498 36.6258 64.1502 36.3182 64.2743C36.0106 64.3984 35.7629 64.6367 35.6269 64.9392C33.959 68.5955 33.0527 72.1873 33.1504 75.697C33.16 75.9495 33.2671 76.1885 33.4492 76.3637C33.6313 76.5389 33.8743 76.6367 34.1269 76.6365H60.2129V76.1658C60.2129 75.9498 60.1551 75.7378 60.0455 75.5516C59.936 75.3655 59.7787 75.212 59.5898 75.1072Z" fill="url(#paint1_linear)"/>
<path d="M74.6855 33.7029C70.8574 33.9431 67.334 34.6931 64.25 36.1697C64.0414 36.27 63.8775 36.4443 63.7902 36.6587C63.7029 36.8731 63.6983 37.1123 63.7773 37.3298C66.2715 44.2283 70.3965 52.7458 74.3242 60.2751C74.4214 60.4669 74.5826 60.6185 74.7799 60.7038C74.9772 60.7891 75.1981 60.8026 75.4043 60.7419H75.4199C75.6033 60.6809 75.7629 60.5638 75.8761 60.4071C75.9893 60.2505 76.0504 60.0622 76.0508 59.8689C76.1719 50.0076 76.2187 40.574 75.6719 34.5544C75.65 34.3123 75.5349 34.0882 75.3508 33.9293C75.1668 33.7704 74.9283 33.6892 74.6855 33.7029Z" fill="url(#paint2_linear)"/>
<path d="M91.5176 0.259523H5.05859C3.71713 0.260041 2.43076 0.793164 1.4822 1.74172C0.533642 2.69028 0.00051764 3.97665 0 5.31812V91.7771C-9.99364e-08 93.1189 0.532895 94.4058 1.48151 95.3547C2.43012 96.3037 3.71679 96.8371 5.05859 96.8376H91.5176C92.8597 96.8376 94.1469 96.3045 95.0959 95.3554C96.045 94.4064 96.5781 93.1192 96.5781 91.7771V5.31812C96.5776 3.97632 96.0442 2.68965 95.0952 1.74103C94.1462 0.792418 92.8594 0.259523 91.5176 0.259523ZM79.7148 71.0232C79.7149 71.2996 79.6592 71.5731 79.5511 71.8275C79.4431 72.0818 79.2849 72.3118 79.0859 72.5037L72.3535 79.0037C71.9446 79.3984 71.3984 79.6189 70.8301 79.6189H16.5332C16.1356 79.6196 15.7481 79.4935 15.427 79.2588C15.106 79.0242 14.8681 78.6933 14.748 78.3142C14.4268 77.3353 14.4268 76.2794 14.748 75.3005C14.8621 74.9518 15.0792 74.6459 15.3707 74.423C15.6622 74.2002 16.0144 74.071 16.3809 74.0525L20.2871 73.8572C20.6403 73.8457 20.9863 73.7542 21.299 73.5894C21.6116 73.4246 21.8827 73.1909 22.0918 72.906C22.6289 72.1423 22.6777 71.115 22.166 69.8025C22.0737 69.5593 21.9249 69.3416 21.7321 69.1671C21.5393 68.9926 21.3078 68.8663 21.0566 68.7986L17.8906 67.9607C17.632 67.8903 17.3956 67.7551 17.2038 67.5678C17.0121 67.3805 16.8713 67.1473 16.7949 66.8904C16.332 65.3513 16.5059 63.8806 17.5215 62.4978C17.7093 62.2485 17.9635 62.0571 18.255 61.9455C18.5466 61.8339 18.8636 61.8067 19.1699 61.8669L22.7519 62.5447C23.1793 62.626 23.6216 62.557 24.0039 62.3494C25.3535 61.615 25.8457 60.4392 25.2187 58.6873C25.0865 58.3225 24.829 58.0165 24.4922 57.824L20.9883 55.8083C20.8012 55.7006 20.6398 55.5535 20.5153 55.3771C20.3908 55.2007 20.3063 54.9993 20.2676 54.7869C19.9369 52.9301 20.5163 51.5271 22.0059 50.5779C22.26 50.4199 22.55 50.3289 22.8488 50.3132C23.1476 50.2975 23.4455 50.3576 23.7148 50.488L27.0117 52.0505C27.424 52.2491 27.8913 52.3027 28.3379 52.2028C28.7845 52.1028 29.1843 51.8551 29.4727 51.4998C29.8965 50.9666 30.1797 50.24 30.3496 49.3611C30.4072 49.0542 30.3846 48.7376 30.284 48.442C30.1834 48.1463 30.0082 47.8817 29.7754 47.6736L27.0742 45.2439C26.8304 45.0242 26.6481 44.7447 26.5454 44.433C26.4426 44.1213 26.4229 43.7882 26.4883 43.4666C26.8262 41.8259 27.7695 40.6755 29.4668 40.1287C29.7196 40.0457 29.9873 40.018 30.2518 40.0473C30.5163 40.0766 30.7714 40.1623 31 40.2986L33.8594 42.0134C34.0865 42.1516 34.3395 42.2419 34.6028 42.2788C34.8661 42.3158 35.1342 42.2986 35.3906 42.2283C36.5918 41.8884 37.2617 41.1208 37.3906 39.9138C37.418 39.6392 37.3878 39.3619 37.3021 39.0996C37.2163 38.8373 37.0769 38.5958 36.8926 38.3904L34.7598 35.9919C34.5343 35.7385 34.39 35.4232 34.3454 35.0869C34.3009 34.7506 34.3581 34.4087 34.5098 34.1052C35.1953 32.7517 36.3418 31.8083 37.8887 31.2244C38.2826 31.0751 38.7131 31.0513 39.1212 31.1562C39.5292 31.2611 39.8948 31.4895 40.168 31.8103L41.8125 33.7537C42.0069 33.986 42.2563 34.166 42.5381 34.2773C42.8199 34.3885 43.1251 34.4274 43.4258 34.3904C44.3145 34.2787 45.1281 33.835 45.7031 33.1482C46.0699 32.7296 46.2809 32.1972 46.3005 31.641C46.3201 31.0847 46.147 30.5388 45.8105 30.0955L44.3613 28.1892C44.1527 27.915 44.0293 27.5856 44.0064 27.2418C43.9834 26.898 44.062 26.5551 44.2324 26.2556C45.1172 24.7166 46.5176 23.8103 48.7832 23.9587C49.0034 23.9733 49.217 24.0396 49.4067 24.1523C49.5964 24.265 49.7569 24.4208 49.875 24.6072L51.5996 27.3298C51.7934 27.6395 52.0686 27.8899 52.3952 28.0535C52.7218 28.2171 53.0871 28.2877 53.4512 28.2576C54.2091 28.1833 54.9318 27.9007 55.5391 27.4412C55.9871 27.104 56.311 26.628 56.4601 26.0874C56.6092 25.5468 56.5752 24.9721 56.3633 24.4529L55.5234 22.3298C55.4025 22.0324 55.3618 21.7085 55.4053 21.3904C55.4489 21.0724 55.5751 20.7713 55.7715 20.5173C56.8476 19.1638 58.2598 18.697 59.9961 19.0955C60.7383 19.2634 61.3301 19.8201 61.6035 20.7439L62.0176 22.1365C62.1377 22.5516 62.3642 22.9282 62.6745 23.229C62.9849 23.5297 63.3684 23.7442 63.7871 23.8513C64.5309 24.0521 65.3219 23.9829 66.0195 23.656C67.0918 23.158 67.6523 21.9626 67.3496 20.5837L66.9355 18.6931C66.8728 18.4143 66.8863 18.1236 66.9746 17.8518C67.0629 17.58 67.2228 17.3369 67.4375 17.1482C68.7617 16.0115 70.2832 15.8943 71.9297 16.4216C72.3348 16.5534 72.6866 16.8124 72.9329 17.16C73.1792 17.5076 73.3069 17.9254 73.2969 18.3513C73.2188 22.0291 74.5078 22.949 78.416 22.1521C78.5736 22.1202 78.7362 22.1238 78.8922 22.1626C79.0482 22.2013 79.1936 22.2743 79.318 22.3762C79.4423 22.4781 79.5424 22.6063 79.611 22.7517C79.6797 22.897 79.7151 23.0558 79.7148 23.2166V71.0232Z" fill="url(#paint3_linear)"/>
<path d="M194.994 0.259522H108.428C107.1 0.259522 105.827 0.786924 104.888 1.7257C103.949 2.66448 103.422 3.93774 103.422 5.26538V91.8318C103.422 93.1593 103.95 94.4322 104.889 95.3709C105.827 96.3096 107.1 96.8371 108.428 96.8376H194.994C196.322 96.8376 197.595 96.3102 198.534 95.3715C199.473 94.4327 200 93.1594 200 91.8318V5.26538C200 4.60793 199.871 3.95687 199.619 3.34942C199.368 2.74196 198.999 2.19002 198.534 1.72513C198.07 1.26024 197.518 0.891525 196.91 0.640048C196.303 0.388571 195.652 0.259265 194.994 0.259522ZM182.279 45.8494C178.088 54.0271 171.57 63.6716 164.354 73.7576C164.268 73.8763 164.155 73.9715 164.023 74.0343C163.891 74.0971 163.746 74.1254 163.6 74.1166C163.454 74.1079 163.313 74.0623 163.19 73.9841C163.066 73.9059 162.965 73.7977 162.895 73.6697C159.236 67.029 155.799 61.4451 152.934 58.5974C152.595 58.2637 152.169 58.0319 151.705 57.9283C151.241 57.8247 150.757 57.8535 150.309 58.0115L147.127 59.1169C146.477 59.3435 145.922 59.7807 145.549 60.3591C142.453 65.1326 136.242 71.5955 129.824 78.1736C129.397 78.6113 128.816 78.8659 128.205 78.8837C127.593 78.9016 126.999 78.6813 126.547 78.2693L121.406 73.5915C121.08 73.2935 120.87 72.8888 120.814 72.45C120.759 72.0112 120.861 71.567 121.104 71.197C124.628 65.8687 127.502 60.1371 129.662 54.1248C129.811 53.7054 130.001 53.3018 130.229 52.9197C131.518 50.7712 132.877 48.863 134.4 47.5349C134.92 47.0913 135.321 46.5248 135.566 45.887C135.811 45.2492 135.893 44.5601 135.805 43.8826L135.316 40.2751C137.986 36.0388 140.73 32.2869 143.658 29.7771C144.024 29.4632 144.439 29.2123 144.887 29.0349L150.812 26.6638C151.382 26.4323 152.02 26.4323 152.59 26.6638C157.293 28.5994 160.498 31.1697 160.957 34.906C161.015 35.3917 161.224 35.8469 161.554 36.208C161.884 36.5692 162.318 36.818 162.797 36.9197C168.852 38.1697 175.064 40.4353 181.352 43.2517C181.588 43.3557 181.8 43.5068 181.976 43.6958C182.152 43.8848 182.288 44.1077 182.375 44.3508C182.462 44.5939 182.498 44.8523 182.481 45.1099C182.465 45.3676 182.396 45.6192 182.279 45.8494Z" fill="url(#paint4_linear)"/>
<path d="M91.7461 103.681H4.83203C3.5505 103.681 2.32145 104.19 1.41527 105.097C0.509089 106.003 3.94933e-07 107.232 3.94933e-07 108.513V195.427C-0.00025616 196.062 0.124486 196.69 0.367105 197.276C0.609725 197.863 0.965468 198.395 1.41401 198.844C1.86255 199.293 2.39509 199.649 2.98123 199.892C3.56737 200.135 4.19562 200.26 4.83008 200.26H91.7441C93.0253 200.26 94.2541 199.751 95.1602 198.845C96.0663 197.939 96.5757 196.711 96.5762 195.429V108.515C96.5764 107.881 96.4517 107.252 96.2091 106.666C95.9665 106.08 95.6108 105.547 95.1623 105.098C94.7138 104.649 94.1812 104.293 93.5951 104.05C93.0089 103.807 92.3807 103.682 91.7461 103.681ZM79.4414 125.9C79.2695 126.998 78.7285 127.24 77.9375 128.105C77.1465 128.97 78.0137 129.89 76.8594 130.804C75.7051 131.719 74.7695 131.256 73.5391 132.172C72.3086 133.088 72.7734 135.349 71.2207 136.494C69.668 137.638 69.0723 136.396 67.6875 137.918C64.3789 138.779 75.043 150.027 72.2754 151.969C61.2031 161.248 50.9141 171.531 41.2402 182.607C40.5039 175.144 61.7188 151.088 59.2402 148.857C56.7617 146.627 28.8613 176.041 26.6133 173.287C24.3652 170.533 53.957 141.949 51.125 140.58C48.5039 139.314 24 159.166 18.043 158.978C17.9367 158.973 17.8346 158.935 17.7508 158.87C17.6671 158.804 17.606 158.714 17.5759 158.612C17.5458 158.51 17.5483 158.401 17.583 158.3C17.6177 158.2 17.6829 158.112 17.7695 158.051C22.6367 154.515 45.3086 131.293 47.9766 128.312C48.2126 128.046 48.5348 127.871 48.8867 127.818C52.1641 127.355 59.6973 133.041 61.4902 132.383C62.8086 131.496 62.7031 130.34 63.3398 128.845C64.9023 127.447 65.4883 128.367 67.1699 126.853C68.8516 125.34 67.8477 122.838 69.3184 122.683C70.5684 122.552 72.4141 120.597 73.5312 120.207C74.7207 119.791 79.6152 124.804 79.4434 125.9H79.4414Z" fill="url(#paint5_linear)"/>
<path d="M195.117 103.681H108.311C107.016 103.681 105.774 104.196 104.858 105.112C103.942 106.027 103.428 107.269 103.428 108.564V195.377C103.428 196.672 103.942 197.914 104.858 198.829C105.774 199.745 107.016 200.26 108.311 200.26H195.117C196.412 200.26 197.654 199.745 198.57 198.829C199.486 197.914 200 196.672 200 195.377V108.57C200.001 107.928 199.875 107.293 199.63 106.7C199.385 106.107 199.025 105.568 198.572 105.114C198.118 104.66 197.58 104.299 196.987 104.054C196.394 103.808 195.759 103.681 195.117 103.681ZM175.195 165.217C173.957 167.867 168.359 173.01 163.521 174.658C163.396 174.699 163.262 174.709 163.132 174.688C163.002 174.666 162.878 174.613 162.773 174.533C162.668 174.453 162.584 174.348 162.527 174.229C162.471 174.109 162.445 173.977 162.451 173.845C162.576 169.193 156.934 159.342 148.252 156.603C147.98 156.52 147.734 156.368 147.536 156.163C147.339 155.958 147.197 155.706 147.123 155.431C146.811 154.242 146.363 152.787 145.443 152.502C145.443 152.502 141.688 150.219 141.221 150.744C140.754 151.269 143.402 152.892 144.139 155.504C144.875 158.115 156.184 174.584 155.58 178.308C154.977 182.033 150.994 185.826 146.75 185.679C142.506 185.533 131.516 174.101 131.469 172.779C131.422 171.457 137.805 165.588 139.609 167.176C141.414 168.763 144.688 178.988 146.75 177.156C148.813 175.324 139.328 163.738 136.998 163.642C134.668 163.547 130.674 158.656 131.777 157.345C132.881 156.035 121.121 143.521 120.336 142.912C119.795 141.545 119.736 129.871 120.336 128.476C120.936 127.082 126.078 121.4 128.092 120.72C130.105 120.041 142.129 120.076 144.754 120.414C147.379 120.752 155.635 125.101 156.277 127.709C156.795 129.816 155.615 139.658 155.15 143.31C155.091 143.781 155.173 144.26 155.388 144.683C155.602 145.107 155.939 145.457 156.354 145.687C157.009 146.045 157.701 146.332 158.418 146.543C158.693 146.625 158.945 146.767 159.158 146.96C159.37 147.152 159.537 147.389 159.646 147.654C160.777 150.388 161.184 155.076 163.496 157.5C163.496 157.5 166.564 162.275 174.434 163.726C174.592 163.757 174.741 163.824 174.869 163.921C174.998 164.018 175.103 164.143 175.176 164.286C175.25 164.43 175.29 164.588 175.293 164.749C175.296 164.91 175.263 165.07 175.195 165.217Z" fill="url(#paint6_linear)"/>
<defs>
<linearGradient id="paint0_linear" x1="17.4115" y1="0.259467" x2="192.953" y2="8.01603" gradientUnits="userSpaceOnUse">
<stop stop-color="#33B3DF"/>
<stop offset="1" stop-color="#31D5D4"/>
</linearGradient>
<linearGradient id="paint1_linear" x1="17.4115" y1="0.259467" x2="192.953" y2="8.01603" gradientUnits="userSpaceOnUse">
<stop stop-color="#33B3DF"/>
<stop offset="1" stop-color="#31D5D4"/>
</linearGradient>
<linearGradient id="paint2_linear" x1="17.4115" y1="0.259467" x2="192.953" y2="8.01603" gradientUnits="userSpaceOnUse">
<stop stop-color="#33B3DF"/>
<stop offset="1" stop-color="#31D5D4"/>
</linearGradient>
<linearGradient id="paint3_linear" x1="17.4115" y1="0.259467" x2="192.953" y2="8.01603" gradientUnits="userSpaceOnUse">
<stop stop-color="#33B3DF"/>
<stop offset="1" stop-color="#31D5D4"/>
</linearGradient>
<linearGradient id="paint4_linear" x1="17.4115" y1="0.259467" x2="192.953" y2="8.01603" gradientUnits="userSpaceOnUse">
<stop stop-color="#33B3DF"/>
<stop offset="1" stop-color="#31D5D4"/>
</linearGradient>
<linearGradient id="paint5_linear" x1="17.4115" y1="0.259467" x2="192.953" y2="8.01603" gradientUnits="userSpaceOnUse">
<stop stop-color="#33B3DF"/>
<stop offset="1" stop-color="#31D5D4"/>
</linearGradient>
<linearGradient id="paint6_linear" x1="17.4115" y1="0.259467" x2="192.953" y2="8.01603" gradientUnits="userSpaceOnUse">
<stop stop-color="#33B3DF"/>
<stop offset="1" stop-color="#31D5D4"/>
</linearGradient>
</defs>
</svg>
